# xmcd
#
# Track frame offsets: 
#        150
#        14254
#        31399
#        47458
#        61254
#        73692
#        89952
#        105522
#
# Disc length: 1581 seconds
#
# Revision: 1
# Processed by: cddbd v1.5.2PL0 Copyright (c) Steve Scherf et al.
# Submitted via: ExactAudioCopy v0.99pb5
#
DISCID=65062b08
DTITLE=Lorrie Morgan - Super Hits
DYEAR=2004
DGENRE=Country
TTITLE0=We Both Walk
TTITLE1=Half Enough
TTITLE2=Five Minutes
TTITLE3=Gonna Leave The Light On
TTITLE4=What Part Of No
TTITLE5=Watch Me
TTITLE6=Good As I Was To You
TTITLE7=By My Side (Duet with John Randall)
EXTD=
EXTT0=
EXTT1=
EXTT2=
EXTT3=
EXTT4=
EXTT5=
EXTT6=
EXTT7=
PLAYORDER=
